<?xml version="1.0" standalone="no"?>
<!DOCTYPE svg PUBLIC "-//W3C//DTD SVG 20010904//EN"
 "http://www.w3.org/TR/2001/REC-SVG-20010904/DTD/svg10.dtd">
<svg version="1.0" xmlns="http://www.w3.org/2000/svg"
 width="694.000000pt" height="694.000000pt" viewBox="0 0 694.000000 694.000000"
 preserveAspectRatio="xMidYMid meet">
<metadata>
Created by potrace 1.11, written by Peter Selinger 2001-2013
</metadata>
<g transform="translate(0.000000,694.000000) scale(0.100000,-0.100000)"
fill="#000000" stroke="none">
<path d="M3644 6721 c-28 -5 -59 -13 -70 -18 -10 -6 -36 -13 -56 -17 -21 -4
-38 -11 -38 -16 0 -13 -85 -37 -175 -50 -44 -7 -107 -20 -140 -30 -33 -10 -84
-23 -114 -29 -29 -6 -108 -38 -175 -70 -90 -44 -128 -58 -148 -54 -16 3 -28
11 -28 18 0 21 89 83 161 111 38 15 69 31 69 35 0 14 -164 -42 -300 -103 -237
-106 -280 -127 -280 -132 0 -3 8 -3 18 0 9 3 -5 -14 -33 -39 -27 -25 -51 -51
-51 -58 -4 -36 -19 -60 -48 -78 -50 -31 -83 -70 -67 -80 11 -7 10 -14 -5 -37
-22 -34 -35 -45 -47 -37 -5 3 -26 5 -48 5 -21 -1 -39 1 -39 2 0 2 31 27 70 55
81 61 98 80 44 53 -22 -11 -42 -20 -47 -20 -47 -3 -122 -29 -153 -53 -23 -18
-31 -29 -21 -29 11 0 2 -15 -28 -46 -24 -26 -43 -52 -42 -58 1 -6 -5 -10 -12
-8 -8 2 -24 -1 -35 -6 -12 -5 -32 -14 -46 -20 -39 -16 -258 -210 -340 -302
-41 -46 -105 -115 -141 -154 -36 -39 -81 -93 -99 -121 -19 -27 -37 -52 -40
-55 -18 -14 -141 -230 -195 -345 -83 -174 -136 -314 -184 -481 -21 -76 -44
-155 -49 -174 -7 -24 -10 129 -11 508 l-1 542 25 40 c14 22 25 41 25 43 0 2
-17 4 -37 3 -31 -1 -41 -7 -61 -36 l-23 -35 21 -9 22 -10 -4 -620 c-3 -679 -2
-668 -59 -664 -17 1 -36 9 -42 18 -11 13 -10 13 5 1 16 -12 18 -11 18 8 0 15
-4 20 -12 15 -7 -4 -27 -7 -44 -6 -26 2 -32 -1 -30 -15 4 -28 -41 -82 -64 -76
-10 3 -27 0 -37 -5 -13 -8 33 -10 162 -9 l179 2 4 40 c6 71 64 238 100 288 34
47 54 59 33 19 -17 -31 -14 -47 4 -32 8 7 15 20 15 28 0 13 3 12 15 -4 8 -10
15 -27 15 -38 0 -12 5 -16 15 -12 9 3 25 0 36 -7 18 -10 23 -9 36 11 17 24 53
30 53 8 0 -7 7 -19 15 -26 8 -7 15 -22 15 -35 0 -12 9 -30 19 -39 11 -10 29
-37 40 -59 10 -23 26 -50 33 -61 13 -17 17 -17 45 -3 27 15 32 15 54 0 56 -37
99 -87 99 -115 0 -37 21 -80 36 -74 17 7 43 -25 54 -66 6 -19 19 -44 30 -55
13 -15 16 -23 7 -26 -7 -3 8 -15 33 -27 85 -41 99 -51 105 -70 4 -14 15 -20
35 -20 16 0 32 -4 35 -10 3 -5 35 -10 69 -10 68 0 78 -5 163 -82 33 -29 51
-38 78 -38 32 0 38 -4 52 -37 8 -21 18 -66 21 -100 5 -68 -13 -119 -67 -187
-16 -19 -34 -56 -41 -81 -7 -26 -21 -50 -33 -56 -21 -12 -21 -15 2 -204 6 -53
6 -84 -1 -92 -6 -7 -7 -24 -4 -38 7 -26 -16 -136 -40 -193 -9 -21 -21 -33 -32
-31 -52 5 -71 -3 -120 -52 -64 -64 -73 -98 -45 -183 16 -46 18 -68 11 -93 -5
-19 -6 -43 -3 -53 4 -12 2 -20 -6 -20 -8 0 -10 -17 -7 -55 3 -30 1 -55 -4 -55
-4 0 -8 -7 -8 -15 0 -8 5 -15 10 -15 6 0 10 -18 10 -39 0 -36 -3 -40 -27 -43
-16 -2 -43 3 -62 10 l-34 14 34 -35 c62 -63 70 -74 79 -108 14 -48 14 -48 -28
-67 l-38 -17 18 -30 c23 -38 23 -45 -2 -45 -28 0 -25 -11 10 -45 40 -39 99
-138 72 -121 -4 2 -8 -4 -8 -14 0 -10 3 -17 7 -15 6 4 82 -74 185 -189 44 -49
35 -62 -14 -21 -17 14 -35 24 -40 23 -19 -6 -159 130 -165 160 -3 17 -34 57
-75 100 -39 39 -85 92 -103 119 -19 26 -58 76 -88 112 -29 35 -58 76 -65 90
-6 14 -27 51 -47 81 -92 141 -103 164 -232 475 l-46 111 0 361 c-1 199 3 363
7 365 15 6 60 98 51 103 -5 4 -9 21 -9 38 1 29 2 30 14 15 16 -22 26 -23 26
-3 0 8 13 41 29 73 38 75 58 122 66 150 14 49 81 90 103 63 11 -14 12 -13 7 6
-8 28 4 51 15 33 5 -9 8 -5 8 11 0 13 3 34 7 47 5 14 3 22 -4 22 -6 0 -10 -5
-8 -12 1 -7 -4 -12 -11 -13 -7 0 -16 -5 -20 -10 -14 -21 -60 -34 -89 -26 -52
16 -63 23 -63 40 -1 12 -4 10 -13 -7 -7 -12 -16 -19 -20 -16 -4 4 -8 -4 -8
-17 -1 -17 -3 -19 -6 -6 -7 27 -21 20 -37 -18 -18 -42 -23 -43 -36 -9 -7 18
-7 31 0 39 8 9 8 32 0 76 -5 35 -10 114 -10 174 0 117 -6 140 -30 125 -8 -6
-49 -10 -90 -11 l-75 -2 58 -7 c32 -4 60 -10 64 -13 7 -8 -26 -97 -36 -97 -5
0 -13 15 -19 33 -9 28 -10 24 -11 -44 -1 -68 -3 -77 -21 -82 -26 -7 -26 -43 0
-57 20 -11 20 -22 20 -1531 -1 -836 -4 -1534 -7 -1552 l-7 -32 -7 40 c-5 22
-9 686 -11 1475 l-3 1435 -5 -1192 c-3 -655 -8 -1194 -11 -1198 -4 -3 -9 18
-13 47 -8 64 -34 148 -51 166 -19 21 -43 -10 -50 -66 -12 -97 -16 -112 -29
-112 -8 0 -17 7 -20 16 -3 9 -6 392 -5 852 1 814 1 835 18 772 29 -107 31
-102 27 80 -2 137 -8 195 -25 266 -20 83 -22 110 -18 330 3 222 16 353 38 396
13 26 12 28 -20 28 -42 0 -61 -9 -61 -30 0 -10 -7 -23 -15 -30 -14 -11 -15
-10 -7 11 18 52 9 57 -95 54 -107 -4 -122 -11 -105 -50 13 -29 16 -125 5 -125
-5 0 -7 21 -5 47 3 59 -9 83 -33 63 -22 -19 -17 -108 7 -124 13 -8 23 -8 35 0
14 9 19 29 23 90 l5 79 50 3 c61 4 75 -11 75 -82 0 -50 7 -67 44 -119 17 -25
18 -70 17 -1052 0 -564 -3 -1030 -6 -1036 -4 -5 -29 -22 -57 -38 -44 -25 -53
-27 -65 -15 -17 17 -61 29 -71 20 -3 -4 7 -17 23 -30 l29 -23 -27 -18 c-29
-18 -36 -45 -13 -45 7 0 25 9 39 20 31 25 33 25 64 0 27 -21 58 -26 68 -11 3
6 -11 21 -31 35 l-37 25 36 17 c20 10 40 15 43 11 4 -4 6 -40 6 -80 -1 -58 -7
-84 -26 -118 -33 -60 -42 -120 -58 -364 -9 -156 -14 -196 -19 -155 -5 50 -6
48 -8 -30 -1 -87 -13 -131 -25 -94 -7 24 -23 196 -36 384 -11 167 -31 250 -59
250 -23 0 -37 -37 -47 -120 -5 -50 -10 -60 -25 -60 -18 0 -19 38 -19 1360 l0
1360 28 1 c25 1 24 2 -7 9 -36 9 -61 4 -61 -11 0 -5 6 -9 12 -9 7 0 3 -7 -9
-15 -15 -11 -23 -29 -26 -58 -2 -23 -2 -9 0 31 5 86 -11 96 -27 17 -14 -65 -7
-104 26 -152 l24 -36 0 -1134 0 -1134 -25 -42 c-33 -58 -43 -112 -55 -327 -13
-239 -20 -301 -31 -275 -5 14 -8 5 -9 -30 0 -33 -4 -45 -9 -35 -14 25 -20 77
-36 305 -18 269 -35 355 -69 355 -32 0 -39 -65 -51 -455 -6 -214 -8 -394 -3
-399 4 -6 8 -20 8 -33 0 -15 9 -27 25 -35 13 -6 22 -15 19 -20 -8 -13 6 -68
17 -68 5 0 14 10 19 23 l9 22 7 -22 c8 -28 34 -30 41 -3 3 11 9 17 14 15 4 -3
6 -12 3 -19 -4 -10 6 -14 35 -14 32 -1 41 3 41 16 1 16 2 16 14 -1 7 -9 23
-17 35 -17 18 0 21 4 17 20 -3 11 -8 29 -11 39 -4 13 1 23 15 31 11 6 20 21
20 33 0 13 4 27 9 33 6 5 6 120 1 294 -13 403 -14 370 12 370 l21 0 -6 -322
c-7 -338 -3 -377 36 -406 13 -10 15 -18 7 -32 -13 -24 -13 -33 0 -25 5 3 10
-3 10 -14 0 -12 7 -21 15 -21 8 0 15 9 15 20 0 11 5 20 10 20 6 0 10 -9 10
-20 0 -13 7 -20 20 -20 13 0 20 7 20 20 0 11 5 20 10 20 6 0 10 -9 10 -20 0
-17 7 -20 39 -20 33 0 40 4 44 23 l4 22 2 -22 c1 -18 7 -23 27 -23 27 0 28 5
8 72 -3 10 2 19 16 23 13 4 20 15 20 30 0 13 5 27 11 31 9 5 10 50 5 158 -3
83 -7 230 -7 326 -2 161 0 175 16 179 17 3 18 -13 12 -328 -4 -205 -2 -333 4
-336 5 -4 9 -17 9 -30 0 -15 7 -26 21 -30 12 -4 18 -12 15 -21 -9 -23 5 -74
20 -74 8 0 14 9 14 19 0 29 18 35 22 9 5 -33 32 -34 45 -1 l11 28 1 -28 c1
-26 4 -28 41 -25 33 1 40 6 41 22 0 20 1 20 9 -1 6 -13 18 -23 30 -23 15 0 20
7 20 28 0 15 -6 34 -12 41 -9 10 -10 15 -2 18 6 2 20 10 30 18 18 12 19 28 18
202 -2 408 -17 983 -25 983 -5 0 -9 -51 -9 -114 0 -106 -2 -117 -24 -143 -13
-15 -31 -43 -40 -61 -9 -18 -21 -30 -26 -27 -6 4 -10 84 -10 192 0 176 1 186
22 216 31 43 31 107 1 139 l-23 24 0 881 0 880 28 36 c15 20 32 36 39 37 31 1
34 -42 33 -423 -5 -1012 -1 -1569 10 -1587 6 -10 10 34 10 129 l0 145 56 -89
c385 -607 951 -1059 1615 -1290 135 -47 184 -55 84 -15 -30 12 -55 26 -55 30
0 4 -14 13 -30 20 -41 17 -113 70 -106 77 3 4 56 -19 118 -50 213 -106 417
-169 601 -184 67 -6 147 10 147 29 0 5 10 13 23 18 12 6 29 14 37 19 26 16
153 41 210 41 35 0 64 6 79 16 19 14 27 14 47 4 17 -10 61 -12 171 -8 82 4
171 3 198 -1 28 -3 73 -3 100 1 121 19 145 20 158 10 9 -8 30 -6 75 8 33 11
98 26 144 34 46 8 96 19 111 25 16 6 38 11 50 11 21 -1 21 -1 3 -11 -17 -11
-17 -12 5 -23 27 -14 77 1 221 67 417 191 846 536 1138 912 369 477 600 1062
649 1645 18 218 20 320 5 320 -7 0 -16 4 -19 10 -4 6 1 7 11 3 16 -6 17 4 11
143 -14 320 -95 682 -222 995 -45 110 -171 369 -180 369 -3 0 9 -28 26 -62 40
-78 83 -191 70 -183 -5 3 -24 30 -40 59 -39 68 -52 78 -100 81 -51 3 -98 31
-137 82 -25 33 -33 38 -40 25 -8 -13 -14 -13 -34 -2 -38 20 -89 67 -137 126
-27 33 -52 54 -64 54 -28 0 -17 -33 30 -88 20 -23 51 -62 70 -85 19 -23 39
-41 46 -39 11 2 21 -17 39 -70 3 -12 16 -18 35 -18 23 0 31 6 39 28 l9 27 22
-42 c12 -24 46 -67 77 -97 l55 -55 1 -97 c2 -68 -2 -99 -10 -102 -7 -2 -12
-12 -12 -22 0 -11 -10 -20 -25 -24 -14 -4 -26 -13 -26 -21 -1 -8 -2 -21 -3
-27 -1 -7 -20 -25 -43 -40 -24 -15 -43 -32 -43 -37 0 -11 -35 -24 -65 -25 -11
-1 -19 -6 -18 -13 2 -7 -7 -17 -18 -24 -34 -18 -47 3 -98 161 -20 61 -131 233
-166 256 -12 8 -32 36 -45 62 -12 26 -29 62 -38 81 -9 18 -27 40 -40 49 -13 8
-47 47 -76 86 -29 39 -71 89 -93 111 -22 22 -43 47 -47 55 -3 8 -4 2 -1 -14 5
-23 3 -27 -10 -22 -9 3 -15 3 -13 -1 12 -27 49 -83 88 -136 25 -34 51 -74 57
-89 7 -15 23 -34 37 -43 32 -21 62 -72 81 -138 10 -36 27 -65 51 -88 20 -19
51 -65 69 -104 22 -48 45 -80 74 -104 27 -21 40 -38 37 -48 -4 -9 1 -17 14
-20 21 -6 28 -23 9 -23 -6 0 -7 -5 -2 -12 4 -7 15 -33 24 -58 12 -33 20 -44
34 -42 10 2 28 -10 44 -29 23 -28 30 -30 48 -20 12 6 28 8 36 5 8 -3 18 -1 22
5 3 6 23 11 44 11 23 0 44 6 52 16 12 15 14 14 20 -7 12 -41 10 -109 -6 -193
-36 -190 -64 -257 -136 -329 -21 -21 -47 -51 -59 -67 l-20 -29 22 -4 c20 -4
20 -4 -4 -6 -17 -1 -29 -8 -33 -21 -3 -11 -23 -38 -44 -60 -21 -23 -44 -60
-52 -83 -16 -48 -44 -81 -64 -74 -9 4 -11 -1 -8 -14 3 -10 0 -33 -7 -50 -10
-23 -10 -33 -1 -42 6 -6 11 -28 11 -49 0 -31 -4 -38 -19 -38 -11 0 -21 6 -24
13 -5 16 -57 -10 -57 -30 0 -10 5 -11 19 -3 27 14 71 9 81 -10 11 -22 19 -159
9 -165 -4 -3 -2 -17 6 -31 12 -24 10 -32 -16 -82 -16 -31 -29 -64 -29 -73 0
-22 -31 -48 -61 -51 -26 -3 -38 -10 -73 -46 -21 -22 -24 -22 -40 -7 -15 15
-16 15 -16 -2 -1 -13 -8 -8 -31 20 -17 20 -37 37 -45 37 -8 0 -14 3 -14 8 0 8
-60 9 -75 1 -5 -4 -27 -10 -49 -13 -26 -5 -40 -14 -43 -27 -3 -10 -9 -19 -14
-19 -13 0 -79 -61 -79 -73 0 -6 10 -1 23 11 12 11 34 25 50 31 15 6 27 17 27
25 0 27 35 36 111 28 l73 -7 11 -38 c6 -21 14 -35 18 -31 13 13 7 -20 -7 -38
-16 -22 -27 -23 -20 -3 11 27 -12 16 -25 -13 -7 -15 -13 -28 -12 -29 0 -2 -6
-18 -15 -38 -8 -19 -14 -36 -13 -37 6 -9 -14 -47 -22 -43 -5 4 -13 -4 -19 -17
-13 -32 -35 -58 -49 -58 -23 0 -70 -30 -75 -47 -3 -10 -7 -31 -10 -48 l-5 -30
19 25 c11 14 20 30 20 36 0 6 11 21 25 34 24 22 25 22 25 4 0 -11 4 -24 9 -29
13 -14 23 -65 13 -65 -5 0 -14 -11 -20 -25 -15 -33 -42 -33 -42 1 0 43 -23 22
-42 -37 -22 -70 -23 -106 -4 -90 8 7 13 23 11 36 -1 16 3 25 12 25 16 0 7 -47
-13 -67 -7 -7 -16 -22 -19 -33 -3 -11 -12 -20 -18 -20 -19 0 -87 -91 -87 -116
0 -13 -4 -24 -9 -24 -6 0 -22 -12 -38 -26 -19 -17 -34 -23 -49 -20 -13 4 -35
1 -49 -6 -26 -12 -26 -12 -5 -20 35 -13 12 -30 -31 -23 -22 4 -39 3 -39 -3 0
-5 -24 -10 -52 -11 -52 -1 -52 -1 -30 15 l24 16 -23 12 c-27 13 -37 36 -15 36
9 0 16 8 16 19 0 26 -55 36 -86 16 -18 -12 -22 -21 -18 -43 4 -20 0 -33 -14
-45 -13 -12 -22 -15 -27 -8 -3 6 -15 11 -25 11 -13 0 -21 9 -25 28 -3 15 -12
47 -20 72 -8 25 -15 56 -15 70 0 14 -13 44 -29 67 -29 42 -48 132 -36 164 3 8
2 26 -3 39 -5 13 -5 44 0 72 6 31 6 54 0 61 -5 7 -21 44 -35 82 -14 39 -35 89
-47 113 -19 36 -21 51 -15 100 4 31 15 73 25 92 9 19 20 51 24 71 4 22 20 50
42 72 47 47 57 92 33 147 -22 49 -23 64 -8 88 9 14 5 32 -15 81 -20 50 -23 67
-14 78 9 11 8 13 -2 11 -12 -3 -29 40 -33 84 -1 9 -4 15 -7 13 -4 -2 -27 17
-53 44 -41 42 -44 49 -31 62 18 19 8 49 -16 49 -13 0 -17 -6 -14 -22 4 -21 4
-22 -5 -3 -13 27 -13 55 0 55 5 0 7 -4 4 -10 -3 -5 -2 -10 3 -10 5 0 14 11 20
24 9 20 8 25 -4 30 -20 8 -33 -1 -44 -28 -7 -18 -9 -18 -9 -3 -1 10 4 27 9 38
9 15 7 19 -7 20 -14 0 -13 3 5 11 19 9 23 18 20 45 -1 19 2 37 8 41 13 8 12
97 0 125 -5 9 -14 17 -21 17 -7 0 -19 9 -26 20 -11 16 -27 22 -72 24 -31 2
-60 -1 -63 -5 -11 -18 -24 2 -14 21 5 10 10 22 10 25 0 12 -25 -1 -26 -13 -1
-7 -2 -16 -3 -22 -2 -21 -21 -9 -36 24 -9 18 -27 44 -40 56 -23 21 -31 22
-110 18 -59 -4 -92 -11 -104 -22 -10 -9 -28 -16 -40 -16 -13 0 -35 -7 -49 -15
-63 -34 -95 -41 -132 -29 -52 18 -214 -2 -207 -25 5 -18 -72 -120 -141 -188
-58 -57 -70 -73 -53 -73 12 0 21 -5 21 -10 0 -6 -17 -10 -37 -9 -28 1 -54 -8
-98 -34 -73 -44 -198 -91 -283 -107 -90 -16 -248 -13 -333 6 -78 17 -198 68
-251 105 -20 15 -43 22 -66 21 -21 -2 -31 1 -27 8 3 5 14 10 23 10 15 0 15 1
0 13 -41 31 -144 168 -170 225 -74 163 -95 394 -49 557 47 169 160 345 293
454 74 60 236 143 328 168 70 18 303 25 351 10 20 -6 30 -4 40 8 8 9 20 21 28
28 8 7 33 31 55 55 23 23 50 42 60 42 22 0 81 34 118 68 21 19 26 31 21 53 -8
41 45 104 113 134 41 18 58 32 71 59 17 38 31 44 51 24 18 -18 163 -20 189 -2
12 8 29 14 36 14 8 0 28 7 46 16 24 12 71 17 179 20 81 2 169 6 195 9 27 3 54
2 60 -4 7 -5 16 -11 22 -13 5 -1 8 -10 7 -19 -2 -9 4 -19 13 -22 20 -8 19 -44
-1 -55 -18 -10 -10 -36 9 -29 6 2 27 -7 46 -20 18 -13 46 -23 61 -23 48 0 120
-28 141 -54 12 -16 30 -26 45 -26 14 0 50 -12 80 -26 70 -33 88 -27 79 25 -7
40 -6 40 34 52 37 11 46 10 84 -9 23 -11 54 -24 70 -27 15 -4 30 -11 33 -16 3
-5 18 -9 33 -9 15 0 54 -9 87 -20 54 -18 63 -19 88 -6 24 12 33 12 75 -2 72
-23 81 -15 81 66 0 37 -4 72 -9 77 -4 6 -16 31 -26 58 -19 50 -36 58 -71 32
-26 -20 -40 -19 -91 6 -41 20 -45 20 -56 5 -11 -15 -18 -14 -70 15 -35 19 -71
48 -89 73 -16 22 -36 45 -44 49 -29 16 -12 23 47 19 44 -3 60 -1 55 7 -5 7 1
10 16 10 13 -1 38 5 55 12 30 12 41 10 120 -17 106 -37 157 -39 161 -7 3 18
-7 29 -44 50 -26 16 -58 38 -72 51 -14 12 -42 27 -63 32 -29 8 -42 19 -55 45
-14 30 -21 35 -50 35 -38 0 -54 -18 -31 -35 23 -16 21 -25 -3 -25 -11 0 -29 9
-40 20 -16 16 -81 50 -96 50 -12 0 -30 -58 -24 -75 5 -11 6 -30 3 -42 -3 -15
4 -30 22 -49 21 -21 24 -29 13 -36 -7 -4 -24 -6 -38 -3 -59 15 -88 16 -94 6
-4 -6 -16 -11 -27 -11 -19 0 -19 -1 3 -30 12 -16 34 -36 50 -42 31 -14 37 -28
12 -28 -12 0 -15 -7 -11 -26 4 -23 2 -25 -22 -19 -14 4 -30 14 -35 23 -10 18
-63 70 -114 114 -18 14 -32 35 -32 45 0 22 -33 43 -132 84 -40 16 -85 41 -100
56 -14 14 -31 22 -37 19 -5 -4 -14 1 -19 10 -5 9 -17 14 -28 12 -25 -5 -22
-39 6 -58 12 -8 39 -30 60 -47 20 -18 51 -36 69 -39 17 -4 31 -10 31 -15 0 -5
5 -9 11 -9 21 0 109 -43 109 -53 0 -7 -4 -7 -12 1 -15 15 -58 16 -58 1 0 -7 7
-17 16 -23 13 -10 14 -16 3 -39 -15 -33 -33 -36 -26 -4 4 13 -1 31 -11 43 -19
25 -94 67 -134 77 -35 9 -93 44 -131 81 -50 46 -77 51 -131 22 -42 -22 -53
-24 -97 -16 -62 12 -82 5 -76 -27 3 -18 -2 -27 -24 -38 -15 -8 -34 -15 -42
-15 -7 0 -26 -14 -42 -30 -25 -26 -28 -34 -17 -50 9 -15 9 -21 -1 -27 -8 -4
-16 -16 -20 -25 -3 -10 -15 -18 -26 -18 -10 0 -21 -7 -25 -15 -4 -11 -21 -15
-63 -15 -32 0 -71 -7 -86 -15 -32 -16 -53 -11 -68 17 -8 15 -19 18 -57 16 -44
-3 -47 -2 -44 21 1 13 -5 29 -15 36 -17 12 -16 15 5 53 17 31 21 50 17 84 -5
40 -3 44 24 56 15 7 34 10 42 8 8 -3 65 -7 127 -10 125 -7 126 -6 126 60 0 40
-44 81 -96 90 -62 11 -49 34 18 34 45 0 55 3 51 14 -5 11 1 13 27 9 20 -3 36
-1 40 6 4 6 16 11 27 11 10 0 19 6 19 14 0 8 15 17 35 20 19 4 41 16 49 27 8
12 19 18 25 14 6 -3 11 1 11 9 0 12 11 16 50 16 55 0 64 14 30 45 -25 23 -25
27 1 44 18 11 23 11 30 -1 5 -7 6 -20 4 -29 -8 -25 23 -43 79 -46 28 -1 66 -5
84 -9 18 -4 45 -1 62 6 24 10 36 10 59 0 22 -9 34 -9 51 0 l22 12 -23 24 c-19
20 -20 24 -6 30 8 3 25 0 37 -6 34 -18 38 -1 7 26 -26 22 -26 24 -7 24 11 0
40 -10 63 -21 31 -16 38 -18 29 -6 -20 23 -6 37 31 31 l32 -5 -23 20 c-22 19
-45 27 -124 45 -30 7 -36 -2 -16 -22 9 -9 1 -12 -38 -12 -63 0 -133 42 -112
67 10 13 9 18 -7 29 -25 18 -79 19 -72 1 3 -7 -4 -19 -14 -25 -31 -19 -22 -42
21 -59 22 -9 40 -20 40 -25 0 -5 -4 -6 -10 -3 -13 8 -13 -21 0 -46 9 -16 7
-19 -15 -19 -14 0 -25 -4 -25 -10 0 -20 -21 -9 -85 40 l-64 51 -38 -16 c-21
-9 -49 -13 -62 -10 -26 7 -83 64 -75 76 2 4 21 13 42 19 54 17 82 32 82 45 0
6 9 21 20 33 18 19 32 22 90 22 79 0 257 -36 280 -56 9 -7 42 -25 75 -39 33
-15 65 -35 72 -45 13 -18 92 -55 100 -46 3 2 -10 13 -29 23 -21 11 -33 26 -34
40 -1 13 2 20 6 18 5 -3 22 -2 40 1 41 9 28 17 -78 49 -278 86 -556 131 -857
139 -88 3 -183 1 -211 -3z m-80 -130 c9 -13 -47 -30 -124 -37 -54 -5 -68 -4
-80 11 -10 12 -11 18 -2 24 18 11 200 13 206 2z m250 -146 c-5 -11 1 -15 21
-15 27 0 28 0 10 -20 -17 -19 -17 -20 0 -20 9 0 38 -17 64 -38 25 -22 59 -42
76 -46 28 -7 29 -9 11 -21 -10 -8 -15 -18 -12 -23 5 -9 -203 -36 -212 -28 -2
3 9 11 25 20 l28 15 -29 1 c-28 0 -28 1 -11 13 10 8 15 19 11 25 -5 8 2 12 18
12 14 0 26 4 26 8 0 15 -24 32 -47 32 -13 0 -22 5 -20 13 1 7 -7 12 -19 11
-29 -2 -26 36 6 58 31 22 62 24 54 3z m506 -75 c0 -5 -7 -10 -15 -10 -8 0 -15
5 -15 10 0 6 7 10 15 10 8 0 15 -4 15 -10z m-577 -6 c3 -3 2 -14 -3 -23 -5 -9
-11 -23 -13 -32 -8 -26 -137 -54 -137 -29 0 5 8 14 18 19 14 9 15 12 3 20 -17
11 -6 31 19 31 10 0 22 5 25 10 7 11 78 14 88 4z m637 -425 c0 -24 -23 -21
-28 4 -2 10 3 17 12 17 10 0 16 -9 16 -21z m25 -79 c0 -28 -4 -36 -21 -38 -18
-3 -23 3 -27 30 -5 34 7 50 33 45 10 -1 15 -14 15 -37z m-270 -10 c3 -5 -1
-10 -9 -10 -9 0 -16 5 -16 10 0 6 4 10 9 10 6 0 13 -4 16 -10z m540 -109 c7
-28 0 -38 -17 -24 -7 6 -30 16 -50 22 -58 19 -55 31 6 28 49 -2 56 -5 61 -26z
m768 -148 c-7 -2 -19 -2 -25 0 -7 3 -2 5 12 5 14 0 19 -2 13 -5z m-2124 -237
c-12 -14 -27 -26 -33 -26 -5 0 3 13 19 30 34 36 46 33 14 -4z m-202 -8 c-3 -8
-6 -5 -6 6 -1 11 2 17 5 13 3 -3 4 -12 1 -19z m73 -8 c-6 -11 -15 -20 -20 -20
-14 0 -12 27 3 33 23 10 28 7 17 -13z m-40 -4 c0 -3 -4 -8 -10 -11 -5 -3 -10
-1 -10 4 0 6 5 11 10 11 6 0 10 -2 10 -4z m82 -11 c0 -5 -5 -11 -11 -13 -6 -2
-11 4 -11 13 0 9 5 15 11 13 6 -2 11 -8 11 -13z m-122 -9 c0 -3 -4 -8 -10 -11
-5 -3 -10 -1 -10 4 0 6 5 11 10 11 6 0 10 -2 10 -4z m-2173 -508 c-3 -8 -6 -5
-6 6 -1 11 2 17 5 13 3 -3 4 -12 1 -19z m-6 -51 c-10 -9 -11 -8 -5 6 3 10 9
15 12 12 3 -3 0 -11 -7 -18z m90 -45 c7 -17 5 -24 -9 -29 -9 -3 -25 -13 -34
-21 -17 -14 -18 -13 -18 16 0 32 24 66 43 59 5 -1 14 -13 18 -25z m5146 -304
c-3 -8 -6 -5 -6 6 -1 11 2 17 5 13 3 -3 4 -12 1 -19z m-5070 -140 c-3 -8 -6
-5 -6 6 -1 11 2 17 5 13 3 -3 4 -12 1 -19z m-532 -231 c26 -37 19 -47 -30 -47
-48 0 -52 5 -30 34 8 10 13 22 10 25 -11 18 37 7 50 -12z m50 -27 c10 -11 16
-20 13 -20 -3 0 -13 9 -23 20 -10 11 -16 20 -13 20 3 0 13 -9 23 -20z m418
-54 c3 -8 1 -17 -6 -20 -9 -3 -9 -6 0 -13 9 -7 8 -11 -5 -19 -15 -10 -17 -6
-19 27 -2 28 1 39 11 39 8 0 16 -6 19 -14z m-73 -196 c0 -39 -3 -50 -16 -50
-10 0 -14 6 -10 15 4 11 -1 15 -19 15 -18 0 -25 5 -25 20 0 13 7 20 20 20 11
0 20 7 20 15 0 8 7 15 15 15 11 0 15 -12 15 -50z m2638 23 c-10 -2 -26 -2 -35
0 -10 3 -2 5 17 5 19 0 27 -2 18 -5z m90 0 c-10 -2 -26 -2 -35 0 -10 3 -2 5
17 5 19 0 27 -2 18 -5z m90 0 c-10 -2 -26 -2 -35 0 -10 3 -2 5 17 5 19 0 27
-2 18 -5z m95 0 c-7 -2 -21 -2 -30 0 -10 3 -4 5 12 5 17 0 24 -2 18 -5z m90 0
c-7 -2 -21 -2 -30 0 -10 3 -4 5 12 5 17 0 24 -2 18 -5z m120 0 c-13 -2 -35 -2
-50 0 -16 2 -5 4 22 4 28 0 40 -2 28 -4z m100 0 c-7 -2 -21 -2 -30 0 -10 3 -4
5 12 5 17 0 24 -2 18 -5z m90 0 c-7 -2 -21 -2 -30 0 -10 3 -4 5 12 5 17 0 24
-2 18 -5z m74 1 c-3 -3 -12 -4 -19 -1 -8 3 -5 6 6 6 11 1 17 -2 13 -5z m196
-11 c-7 -2 -21 -2 -30 0 -10 3 -4 5 12 5 17 0 24 -2 18 -5z m-2313 -13 c0 -5
-9 -10 -20 -10 -11 0 -20 5 -20 10 0 6 9 10 20 10 11 0 20 -4 20 -10z m80 0
c0 -5 -11 -10 -25 -10 -14 0 -25 5 -25 10 0 6 11 10 25 10 14 0 25 -4 25 -10z
m80 6 c0 -2 -11 -6 -25 -8 -14 -3 -25 -1 -25 3 0 5 11 9 25 9 14 0 25 -2 25
-4z m-395 -16 c-3 -5 -13 -10 -21 -10 -8 0 -12 5 -9 10 3 6 13 10 21 10 8 0
12 -4 9 -10z m78 3 c-7 -2 -21 -2 -30 0 -10 3 -4 5 12 5 17 0 24 -2 18 -5z
m70 0 c-7 -2 -19 -2 -25 0 -7 3 -2 5 12 5 14 0 19 -2 13 -5z m-290 -10 c-7 -2
-19 -2 -25 0 -7 3 -2 5 12 5 14 0 19 -2 13 -5z m70 0 c-7 -2 -19 -2 -25 0 -7
3 -2 5 12 5 14 0 19 -2 13 -5z m-276 -9 c-3 -3 -12 -4 -19 -1 -8 3 -5 6 6 6
11 1 17 -2 13 -5z m66 -1 c-7 -2 -19 -2 -25 0 -7 3 -2 5 12 5 14 0 19 -2 13
-5z m4634 -29 c-3 -3 -12 -4 -19 -1 -8 3 -5 6 6 6 11 1 17 -2 13 -5z m100 -10
c-3 -3 -12 -4 -19 -1 -8 3 -5 6 6 6 11 1 17 -2 13 -5z m-5364 -507 c-9 -16
-26 12 -18 30 7 17 8 17 15 -2 4 -11 5 -24 3 -28z m4589 -727 c-5 -32 -22 -39
-41 -16 -16 19 -3 46 23 46 19 0 22 -4 18 -30z m-4712 -650 c0 -33 -3 -40 -20
-40 -17 0 -20 7 -20 40 0 33 3 40 20 40 17 0 20 -7 20 -40z m-6 -1374 l-6 -27
-15 27 c-11 22 -11 29 -1 35 19 12 30 -5 22 -35z m-795 25 c9 -6 10 -11 2 -15
-6 -4 -11 -17 -11 -29 -1 -19 -3 -18 -14 8 -18 41 -9 56 23 36z m74 2 c3 -5
-1 -21 -8 -38 l-13 -30 -1 38 c-1 33 11 49 22 30z m290 1 c3 -3 0 -20 -6 -37
l-11 -32 -7 29 c-10 37 3 60 24 40z m71 -3 c4 -5 1 -22 -5 -38 l-12 -28 -8 29
c-4 16 -6 33 -3 38 7 11 21 10 28 -1z m286 -16 c0 -14 -4 -25 -10 -25 -5 0
-10 4 -10 9 0 5 -3 16 -6 25 -4 11 -1 16 10 16 10 0 16 -9 16 -25z"/>
<path d="M4285 6460 c-9 -14 -7 -16 33 -23 33 -7 45 6 15 17 -10 3 -23 8 -30
12 -6 3 -14 0 -18 -6z"/>
<path d="M5008 6424 c30 -19 42 -33 42 -50 0 -16 9 -28 29 -38 16 -9 31 -13
33 -10 9 8 103 -31 139 -58 56 -41 64 -43 41 -11 l-22 31 36 -10 c20 -5 68
-30 106 -54 74 -48 74 -47 15 28 -17 22 -286 168 -309 168 -10 0 -18 4 -18 10
0 5 -7 6 -17 3 -9 -4 -14 -2 -11 3 3 5 -19 10 -51 11 l-56 3 43 -26z"/>
<path d="M4925 6390 c16 -10 31 -17 34 -14 7 6 -32 33 -49 34 -8 0 -2 -9 15
-20z"/>
<path d="M705 6216 c22 -71 27 -179 20 -429 -7 -267 -7 -268 -29 -261 -18 6
-19 5 -8 -9 8 -9 10 -21 6 -28 -5 -9 0 -10 19 -5 19 4 29 1 37 -11 7 -13 9 74
7 307 -3 267 -7 334 -20 373 -16 47 -46 105 -32 63z"/>
<path d="M5571 5992 c-6 -11 -6 -24 1 -35 14 -26 115 -123 165 -159 23 -17 47
-44 54 -62 24 -59 68 -104 135 -136 36 -18 68 -30 71 -26 8 8 -17 42 -87 119
-34 37 -56 67 -49 67 7 0 3 11 -11 25 -13 14 -27 25 -32 25 -11 0 -109 72
-126 92 -7 9 -15 27 -17 39 -5 27 -52 69 -77 69 -10 0 -22 -8 -27 -18z"/>
<path d="M5805 5910 c21 -22 41 -40 44 -40 3 0 -13 18 -34 40 -21 22 -41 40
-44 40 -3 0 13 -18 34 -40z"/>
<path d="M1560 5803 c-100 -101 -108 -111 -40 -49 74 68 178 176 168 176 -2 0
-59 -57 -128 -127z"/>
<path d="M6290 5454 c0 -7 133 -188 154 -209 17 -17 -24 46 -82 128 -55 76
-72 96 -72 81z"/>
<path d="M538 5330 c-4 -8 -9 -171 -10 -361 -2 -268 0 -345 9 -342 14 6 28
-40 19 -63 -4 -9 -13 -14 -21 -10 -8 3 -15 1 -15 -4 0 -6 9 -10 20 -10 22 0
25 -17 11 -68 -6 -18 -6 -30 -2 -28 4 3 16 32 26 64 17 58 17 61 -1 93 -17 31
-19 68 -24 389 -3 195 -8 348 -12 340z"/>
<path d="M511 4514 c0 -11 3 -14 6 -6 3 7 2 16 -1 19 -3 4 -6 -2 -5 -13z"/>
<path d="M5940 4421 c0 -6 5 -13 10 -16 6 -3 10 1 10 9 0 9 -4 16 -10 16 -5 0
-10 -4 -10 -9z"/>
<path d="M420 4392 c0 -5 9 -20 19 -33 16 -20 22 -22 42 -12 47 23 102 22 132
-4 30 -24 47 -29 47 -14 0 21 -68 49 -130 54 -36 3 -75 9 -87 13 -13 3 -23 2
-23 -4z"/>
<path d="M470 4268 c0 -26 4 -38 9 -32 17 17 17 74 1 74 -5 0 -10 -19 -10 -42z"/>
<path d="M560 4275 c0 -39 16 -47 29 -12 10 27 4 47 -15 47 -9 0 -14 -12 -14
-35z"/>
<path d="M617 4297 c-7 -18 3 -67 14 -67 5 0 9 18 9 40 0 39 -13 54 -23 27z"/>
<path d="M266 4185 c17 -49 34 -122 34 -146 0 -31 -17 -38 -100 -40 l-55 -2
55 -8 c30 -5 74 -11 98 -15 l43 -6 -6 38 c-9 56 -33 123 -56 164 -11 19 -17
26 -13 15z"/>
<path d="M5877 4193 c-5 -9 22 -77 28 -71 2 2 2 21 -2 41 -5 35 -16 47 -26 30z"/>
<path d="M553 4103 c9 -2 23 -2 30 0 6 3 -1 5 -18 5 -16 0 -22 -2 -12 -5z"/>
<path d="M1027 4080 c3 -11 9 -22 13 -25 5 -3 6 4 3 15 -3 11 -9 22 -13 25 -5
3 -6 -4 -3 -15z"/>
<path d="M5310 4060 c0 -5 5 -10 11 -10 5 0 7 5 4 10 -3 6 -8 10 -11 10 -2 0
-4 -4 -4 -10z"/>
<path d="M5345 4021 c-5 -14 -7 -14 -16 -1 -7 10 -12 11 -15 4 -3 -8 -18 -9
-47 -3 -53 10 -68 10 -42 -1 11 -5 14 -9 7 -9 -7 -1 -20 -8 -28 -16 -14 -13
-14 -15 0 -15 9 0 16 -4 16 -10 0 -5 -6 -10 -14 -10 -8 0 -18 5 -21 10 -3 6
-15 10 -25 10 -10 0 -25 6 -32 14 -10 10 -20 11 -31 4 -10 -5 -27 -6 -38 -3
-12 4 -32 8 -45 10 -20 2 -23 -1 -18 -21 7 -28 -3 -31 -23 -6 -8 9 -12 12 -9
6 3 -6 -3 -19 -14 -29 -11 -10 -20 -25 -20 -32 0 -11 -8 -13 -32 -7 -29 6 -31
5 -19 -9 8 -11 11 -35 9 -72 -2 -31 -1 -58 4 -61 4 -3 8 3 8 14 0 29 10 32 31
11 10 -10 26 -19 34 -19 8 0 15 -5 15 -11 0 -8 -12 -10 -35 -6 -21 3 -33 2
-30 -4 4 -5 13 -9 21 -9 10 0 13 -6 10 -18 -4 -11 2 -27 14 -40 14 -15 20 -35
20 -67 0 -39 -5 -51 -41 -90 -23 -25 -49 -45 -58 -46 -9 0 -11 -3 -4 -5 14 -6
123 71 123 86 0 6 7 10 17 10 9 0 13 -3 10 -7 -4 -3 -2 -12 4 -19 7 -9 5 -14
-10 -19 -12 -3 -21 -11 -21 -16 0 -5 11 -2 25 7 14 9 25 21 25 28 0 17 51 -45
66 -81 8 -18 19 -33 24 -33 9 0 -29 80 -52 107 -10 12 -7 12 16 2 18 -9 29
-23 33 -43 6 -26 7 -27 14 -11 6 17 8 16 8 -7 1 -28 23 -39 36 -18 16 26 27 8
21 -33 -5 -34 -3 -47 9 -57 13 -10 18 -11 28 -1 9 10 8 12 -8 9 -23 -4 -29 32
-6 40 9 3 11 0 6 -8 -6 -9 -3 -9 12 -1 11 6 24 7 28 3 5 -4 5 -2 1 5 -11 19
16 28 29 9 11 -14 13 -15 19 -1 9 25 24 17 32 -17 l7 -33 9 26 c11 34 43 28
57 -10 5 -14 10 -21 10 -14 1 7 8 10 16 7 9 -4 19 3 26 20 16 34 29 23 29 -25
0 -21 5 -39 10 -39 6 0 10 7 10 15 0 8 10 21 23 29 15 11 22 24 21 46 0 16 -4
33 -7 37 -11 11 -8 19 18 47 14 15 22 33 18 42 -3 8 0 50 8 92 7 42 12 81 11
85 -3 10 25 39 34 35 4 -2 12 19 19 46 12 47 12 50 -11 73 -13 13 -29 21 -35
18 -13 -9 -59 22 -59 39 0 16 -27 29 -41 20 -5 -3 -9 0 -9 6 0 8 -9 10 -25 6
-30 -8 -54 2 -35 14 9 6 6 11 -9 20 -19 9 -26 9 -41 -5 -17 -15 -19 -15 -24 2
-7 22 -43 25 -51 4z m-295 -251 c12 -8 9 -10 -12 -10 -16 0 -28 5 -28 10 0 13
20 13 40 0z m83 -7 c-7 -2 -21 -2 -30 0 -10 3 -4 5 12 5 17 0 24 -2 18 -5z
m80 0 c-7 -2 -21 -2 -30 0 -10 3 -4 5 12 5 17 0 24 -2 18 -5z m74 -4 c-14 -8
-22 -8 -30 0 -8 8 -3 11 19 11 25 -1 27 -2 11 -11z m88 1 c4 -6 -5 -10 -19
-10 -14 0 -26 5 -26 10 0 6 9 10 19 10 11 0 23 -4 26 -10z m68 -7 c-7 -2 -19
-2 -25 0 -7 3 -2 5 12 5 14 0 19 -2 13 -5z m80 0 c-7 -2 -19 -2 -25 0 -7 3 -2
5 12 5 14 0 19 -2 13 -5z m77 -3 c0 -5 -9 -10 -20 -10 -11 0 -20 5 -20 10 0 6
9 10 20 10 11 0 20 -4 20 -10z"/>
<path d="M57 3993 c-13 -13 -7 -21 13 -16 11 3 17 9 14 14 -6 11 -18 12 -27 2z"/>
<path d="M771 3991 c-25 -16 6 -21 45 -7 l39 15 -35 0 c-19 0 -41 -3 -49 -8z"/>
<path d="M5937 3994 c-4 -4 -7 -14 -7 -23 0 -22 33 -101 43 -101 11 0 9 58 -3
65 -5 3 -13 20 -18 36 -4 17 -11 27 -15 23z"/>
<path d="M81 3959 c-1 -9 -11 -21 -23 -28 -13 -6 -16 -10 -6 -7 10 3 18 -3 21
-15 3 -10 1 -17 -3 -14 -5 3 -15 2 -24 -1 -20 -8 -23 -103 -4 -122 34 -34 68
-1 68 65 0 38 -27 152 -29 122z m9 -149 c0 -16 -4 -30 -8 -30 -5 0 -7 14 -4
30 2 17 6 30 8 30 2 0 4 -13 4 -30z"/>
<path d="M805 3940 c3 -5 -4 -10 -17 -11 -22 -1 -22 -1 -2 -7 18 -6 21 -16 23
-74 1 -38 -1 -68 -6 -68 -4 0 -9 25 -10 56 -2 64 -6 72 -28 54 -18 -15 -21
-100 -3 -118 32 -32 78 0 78 54 0 43 -21 124 -33 124 -4 0 -5 -4 -2 -10z"/>
<path d="M5717 3852 c-20 -22 -22 -42 -4 -42 11 0 37 39 37 55 0 11 -18 4 -33
-13z"/>
<path d="M861 3824 c0 -11 3 -14 6 -6 3 7 2 16 -1 19 -3 4 -6 -2 -5 -13z"/>
<path d="M5810 3830 c-13 -8 -12 -10 3 -10 9 0 17 5 17 10 0 12 -1 12 -20 0z"/>
<path d="M5820 3755 c-7 -8 -18 -15 -26 -15 -20 0 -30 -29 -32 -91 l-2 -56 42
1 c35 1 43 5 45 21 2 32 27 89 43 102 12 10 9 13 -20 13 -27 1 -31 3 -15 9 19
8 19 8 -2 19 -16 9 -23 8 -33 -3z"/>
<path d="M4737 3732 c-11 -16 0 -65 12 -58 5 3 14 -1 21 -9 11 -13 14 -13 26
2 12 16 13 16 14 2 0 -17 36 -33 45 -20 2 4 1 21 -4 36 -4 19 -10 25 -15 17
-4 -7 -4 -18 0 -24 6 -10 3 -9 -8 0 -9 8 -15 19 -12 27 3 7 0 16 -7 21 -8 5
-10 3 -4 -6 6 -10 4 -12 -8 -7 -9 3 -23 0 -31 -8 -13 -13 -15 -12 -18 12 -2
20 -6 24 -11 15z"/>
<path d="M5655 3729 c-4 -6 -5 -13 -2 -16 7 -7 27 6 27 18 0 12 -17 12 -25 -2z"/>
<path d="M450 3650 c0 -29 1 -30 50 -30 64 0 66 -18 3 -23 -29 -2 -13 -4 40
-5 81 -2 87 -1 87 18 0 17 -7 20 -52 22 l-53 1 55 7 55 6 -55 5 -55 5 53 2
c90 3 58 22 -38 22 l-90 0 0 -30z m135 -40 c-3 -5 -10 -10 -16 -10 -5 0 -9 5
-9 10 0 6 7 10 16 10 8 0 12 -4 9 -10z"/>
<path d="M5636 3634 c-4 -9 -4 -19 -1 -22 2 -3 7 3 11 12 4 9 4 19 1 22 -2 3
-7 -3 -11 -12z"/>
<path d="M726 3563 c-8 -52 -6 -182 4 -213 5 -15 8 28 9 113 1 75 -1 137 -3
137 -2 0 -6 -17 -10 -37z"/>
<path d="M503 3573 c26 -2 67 -2 90 0 23 2 2 3 -48 3 -49 0 -68 -1 -42 -3z"/>
<path d="M5639 3515 c-5 -81 3 -150 22 -181 10 -17 20 -43 21 -58 2 -27 23
-54 34 -44 6 7 -14 94 -31 133 -8 17 -17 57 -20 89 -4 33 -11 69 -15 80 -7 17
-9 14 -11 -19z"/>
<path d="M5509 3280 c-22 -24 -32 -40 -22 -40 9 1 47 50 41 54 -1 1 -10 -5
-19 -14z"/>
<path d="M5750 3295 c0 -3 9 -14 20 -25 22 -22 26 -14 6 13 -13 16 -26 23 -26
12z"/>
<path d="M477 3283 c-13 -12 -7 -51 9 -57 9 -3 38 -6 65 -6 27 0 49 -4 49 -10
0 -6 -28 -10 -65 -10 -68 0 -94 -19 -27 -21 20 0 46 -2 57 -4 11 -2 30 -1 43
2 19 4 23 11 20 37 -3 31 -4 31 -65 34 -84 4 -81 22 3 22 41 0 63 4 59 10 -7
11 -138 14 -148 3z"/>
<path d="M5596 3239 c-18 -26 -21 -49 -7 -49 5 0 16 12 26 26 22 34 4 56 -19
23z"/>
<path d="M5647 3254 c-4 -4 -7 -14 -7 -23 0 -11 3 -12 11 -4 6 6 10 16 7 23
-2 6 -7 8 -11 4z"/>
<path d="M5935 3199 c-4 -6 -5 -12 -2 -15 2 -3 7 2 10 11 7 17 1 20 -8 4z"/>
<path d="M5826 3118 c-8 -109 -6 -203 5 -206 5 -2 9 -11 9 -19 0 -9 3 -13 8
-9 11 11 16 255 6 289 -11 37 -23 14 -28 -55z"/>
<path d="M1788 3173 c7 -3 16 -2 19 1 4 3 -2 6 -13 5 -11 0 -14 -3 -6 -6z"/>
<path d="M464 2946 c-3 -7 -4 -33 -2 -57 3 -48 30 -63 36 -21 3 20 9 22 50 21
80 -2 82 -2 82 30 0 36 -13 41 -96 41 -46 0 -66 -4 -70 -14z m126 -27 c0 -5
-20 -9 -45 -9 -40 0 -54 7 -41 21 9 8 86 -3 86 -12z"/>
<path d="M5850 2850 c0 -5 5 -10 10 -10 6 0 10 5 10 10 0 6 -4 10 -10 10 -5 0
-10 -4 -10 -10z"/>
<path d="M535 2610 c-4 -6 -1 -17 5 -25 17 -20 4 -35 -31 -35 -16 0 -29 -4
-29 -10 0 -5 25 -10 55 -10 30 0 55 -4 55 -10 0 -5 9 -10 20 -10 29 0 25 17
-16 66 -36 45 -48 52 -59 34z"/>
<path d="M1500 2308 c0 -16 5 -28 10 -28 13 0 13 20 0 40 -8 12 -10 9 -10 -12z"/>
<path d="M472 2278 c-16 -16 -15 -83 2 -97 17 -14 151 -11 151 4 0 6 -28 11
-63 13 l-63 3 3 32 c3 32 3 32 60 32 83 0 77 19 -7 23 -46 2 -74 -1 -83 -10z"/>
<path d="M1545 2210 c3 -5 11 -10 16 -10 6 0 7 5 4 10 -3 6 -11 10 -16 10 -6
0 -7 -4 -4 -10z"/>
<path d="M470 1940 c0 -6 33 -10 80 -10 47 0 80 4 80 10 0 6 -33 10 -80 10
-47 0 -80 -4 -80 -10z"/>
<path d="M4940 1939 c0 -5 5 -7 10 -4 6 3 10 8 10 11 0 2 -4 4 -10 4 -5 0 -10
-5 -10 -11z"/>
<path d="M513 1912 c-42 -3 -43 -4 -43 -38 l0 -34 80 0 c94 0 108 18 18 22
-69 3 -86 21 -25 26 20 2 37 7 37 12 0 12 -20 15 -67 12z"/>
</g>
</svg>
